# xmcd
#
# Track frame offsets:
#	150
#	17604
#	32252
#	43872
#	58725
#	75896
#	97138
#	118488
#	139132
#	155301
#	175649
#	192670
#
# Disc length: 2870 seconds
#
# Revision: 0
# Processed by: cddbd v1.5.2PL0 Copyright (c) Steve Scherf et al.
# Submitted via: EZCDAudioConverter 4.0.5.1
#
DISCID=9a0b340c
DTITLE=There Will Be Blood - Horns
DYEAR=2016
DGENRE=Garage-Blues
TTITLE0=Burn Your Halo
TTITLE1=Fire
TTITLE2=Blind Wandering
TTITLE3=Undertow
TTITLE4=Mismatch
TTITLE5=Reviver
TTITLE6=Ride
TTITLE7=Turn Your Back
TTITLE8=Horns
TTITLE9=Short Breath
TTITLE10=Lust
TTITLE11=Til Death Do Us Part
EXTD=
EXTT0=
EXTT1=
EXTT2=
EXTT3=
EXTT4=
EXTT5=
EXTT6=
EXTT7=
EXTT8=
EXTT9=
EXTT10=
EXTT11=
PLAYORDER=
